# xmcd
#
# Track frame offsets:
#	182
#	20752
#	31545
#	43260
#	57360
#	72150
#	86307
#	96045
#	111645
#	121135
#	130352
#	149625
#	160470
#	173375
#	187017
#	198687
#	210337
#	222960
#
# Disc length: 3125 seconds
#
# Revision: 0
# Processed by: cddbd v1.4PL0 Copyright (c) Steve Scherf et al.
# Submitted via: EasyCDDAExtractor 4.6.9.1
#
DISCID=0a0c3312
DTITLE=Screamin' Jay Hawkins - ...What that is!
DYEAR=1969
DGENRE=Blues
TTITLE0=Constipation Blues
TTITLE1=I'm lonely
TTITLE2=Thing called woman
TTITLE3=Dig!
TTITLE4=I'm your man
TTITLE5=Ask him
TTITLE6=What that is
TTITLE7=Feast of the mau mau
TTITLE8=Do you really love me?
TTITLE9=Stone crazy
TTITLE10=I love you
TTITLE11=Reprise
TTITLE12=This is all
TTITLE13=She put the whamee on me
TTITLE14=You're all of my life to me
TTITLE15=Well I tried
TTITLE16=Even though
TTITLE17=Talk about me
EXTD=
EXTT0=
EXTT1=
EXTT2=
EXTT3=
EXTT4=
EXTT5=
EXTT6=
EXTT7=
EXTT8=
EXTT9=
EXTT10=
EXTT11=
EXTT12=
EXTT13=
EXTT14=
EXTT15=
EXTT16=
EXTT17=
PLAYORDER=
